<svg width="21" height="20" viewBox="0 0 21 20" fill="none" xmlns="http://www.w3.org/2000/svg">
<g clip-path="url(#clip0_9070_14877)">
<path d="M13.8333 15C14.2754 15 14.6993 15.1756 15.0118 15.4882C15.3244 15.8008 15.5 16.2247 15.5 16.6667C15.5 16.2247 15.6756 15.8008 15.9882 15.4882C16.3007 15.1756 16.7246 15 17.1667 15C16.7246 15 16.3007 14.8244 15.9882 14.5119C15.6756 14.1993 15.5 13.7754 15.5 13.3334C15.5 13.7754 15.3244 14.1993 15.0118 14.5119C14.6993 14.8244 14.2754 15 13.8333 15ZM13.8333 5.00004C14.2754 5.00004 14.6993 5.17564 15.0118 5.4882C15.3244 5.80076 15.5 6.22468 15.5 6.66671C15.5 6.22468 15.6756 5.80076 15.9882 5.4882C16.3007 5.17564 16.7246 5.00004 17.1667 5.00004C16.7246 5.00004 16.3007 4.82445 15.9882 4.51189C15.6756 4.19932 15.5 3.7754 15.5 3.33337C15.5 3.7754 15.3244 4.19932 15.0118 4.51189C14.6993 4.82445 14.2754 5.00004 13.8333 5.00004ZM8 15C8 13.674 8.52678 12.4022 9.46447 11.4645C10.4021 10.5268 11.6739 10 13 10C11.6739 10 10.4021 9.47326 9.46447 8.53557C8.52678 7.59789 8 6.32612 8 5.00004C8 6.32612 7.47322 7.59789 6.53553 8.53557C5.59785 9.47326 4.32608 10 3 10C4.32608 10 5.59785 10.5268 6.53553 11.4645C7.47322 12.4022 8 13.674 8 15Z" stroke="#6962FB" stroke-width="1.66667" stroke-linecap="round" stroke-linejoin="round"/>
</g>
<defs>
<clipPath id="clip0_9070_14877">
<rect width="20" height="20" fill="white" transform="translate(0.5)"/>
</clipPath>
</defs>
</svg>
