<svg width="21" height="20" viewBox="0 0 21 20" fill="none" xmlns="http://www.w3.org/2000/svg">
<path d="M8.00033 5.83333H13.0003M8.00033 9.16667H13.0003M8.00033 12.5H11.3337M4.66699 4.16667C4.66699 3.72464 4.84259 3.30072 5.15515 2.98816C5.46771 2.67559 5.89163 2.5 6.33366 2.5H14.667C15.109 2.5 15.5329 2.67559 15.8455 2.98816C16.1581 3.30072 16.3337 3.72464 16.3337 4.16667V15.8333C16.3337 16.2754 16.1581 16.6993 15.8455 17.0118C15.5329 17.3244 15.109 17.5 14.667 17.5H6.33366C5.89163 17.5 5.46771 17.3244 5.15515 17.0118C4.84259 16.6993 4.66699 16.2754 4.66699 15.8333V4.16667Z" stroke="#6962FB" stroke-width="2" stroke-linecap="round" stroke-linejoin="round"/>
</svg>
