<svg width="21" height="20" viewBox="0 0 21 20" fill="none" xmlns="http://www.w3.org/2000/svg">
<path d="M10.5 6.66671V9.16671M10.5 11.6667V11.675M15.5 3.33337C16.163 3.33337 16.7989 3.59677 17.2678 4.06561C17.7366 4.53445 18 5.17033 18 5.83337V12.5C18 13.1631 17.7366 13.799 17.2678 14.2678C16.7989 14.7366 16.163 15 15.5 15H11.3333L7.16667 17.5V15H5.5C4.83696 15 4.20107 14.7366 3.73223 14.2678C3.26339 13.799 3 13.1631 3 12.5V5.83337C3 5.17033 3.26339 4.53445 3.73223 4.06561C4.20107 3.59677 4.83696 3.33337 5.5 3.33337H15.5Z" stroke="#6962FB" stroke-width="1.66667" stroke-linecap="round" stroke-linejoin="round"/>
</svg>
