<svg width="21" height="20" viewBox="0 0 21 20" fill="none" xmlns="http://www.w3.org/2000/svg">
<g clip-path="url(#clip0_9070_14857)">
<path d="M18.0002 11.6667L15.5002 9.16667H9.66683C9.44582 9.16667 9.23385 9.07887 9.07757 8.92259C8.92129 8.76631 8.8335 8.55435 8.8335 8.33333V3.33333C8.8335 3.11232 8.92129 2.90036 9.07757 2.74408C9.23385 2.5878 9.44582 2.5 9.66683 2.5H17.1668C17.3878 2.5 17.5998 2.5878 17.7561 2.74408C17.9124 2.90036 18.0002 3.11232 18.0002 3.33333V11.6667Z" stroke="#6962FB" stroke-width="1.66667" stroke-linecap="round" stroke-linejoin="round"/>
<path d="M12.1667 12.5V14.1667C12.1667 14.3877 12.0789 14.5997 11.9226 14.756C11.7663 14.9122 11.5543 15 11.3333 15H5.5L3 17.5V9.16671C3 8.94569 3.0878 8.73373 3.24408 8.57745C3.40036 8.42117 3.61232 8.33337 3.83333 8.33337H5.5" stroke="#6962FB" stroke-width="1.66667" stroke-linecap="round" stroke-linejoin="round"/>
</g>
<defs>
<clipPath id="clip0_9070_14857">
<rect width="20" height="20" fill="white" transform="translate(0.5)"/>
</clipPath>
</defs>
</svg>
