<svg width="21" height="20" viewBox="0 0 21 20" fill="none" xmlns="http://www.w3.org/2000/svg">
<g clip-path="url(#clip0_9070_14881)">
<path d="M3 10.8333C3 10.6123 3.0878 10.4004 3.24408 10.2441C3.40036 10.0878 3.61232 10 3.83333 10H7.16667C7.38768 10 7.59964 10.0878 7.75592 10.2441C7.9122 10.4004 8 10.6123 8 10.8333V15.8333C8 16.0543 7.9122 16.2663 7.75592 16.4226C7.59964 16.5789 7.38768 16.6667 7.16667 16.6667H3.83333C3.61232 16.6667 3.40036 16.5789 3.24408 16.4226C3.0878 16.2663 3 16.0543 3 15.8333V10.8333Z" stroke="#6962FB" stroke-width="1.66667" stroke-linecap="round" stroke-linejoin="round"/>
<path d="M13 7.49996C13 7.27895 13.0878 7.06698 13.2441 6.9107C13.4004 6.75442 13.6123 6.66663 13.8333 6.66663H17.1667C17.3877 6.66663 17.5996 6.75442 17.7559 6.9107C17.9122 7.06698 18 7.27895 18 7.49996V15.8333C18 16.0543 17.9122 16.2663 17.7559 16.4225C17.5996 16.5788 17.3877 16.6666 17.1667 16.6666H13.8333C13.6123 16.6666 13.4004 16.5788 13.2441 16.4225C13.0878 16.2663 13 16.0543 13 15.8333V7.49996Z" stroke="#6962FB" stroke-width="1.66667" stroke-linecap="round" stroke-linejoin="round"/>
<path d="M8 4.16671C8 3.94569 8.0878 3.73373 8.24408 3.57745C8.40036 3.42117 8.61232 3.33337 8.83333 3.33337H12.1667C12.3877 3.33337 12.5996 3.42117 12.7559 3.57745C12.9122 3.73373 13 3.94569 13 4.16671V15.8334C13 16.0544 12.9122 16.2663 12.7559 16.4226C12.5996 16.5789 12.3877 16.6667 12.1667 16.6667H8.83333C8.61232 16.6667 8.40036 16.5789 8.24408 16.4226C8.0878 16.2663 8 16.0544 8 15.8334V4.16671Z" stroke="#6962FB" stroke-width="1.66667" stroke-linecap="round" stroke-linejoin="round"/>
<path d="M3.8335 16.6666H15.5002" stroke="#6962FB" stroke-width="1.66667" stroke-linecap="round" stroke-linejoin="round"/>
</g>
<defs>
<clipPath id="clip0_9070_14881">
<rect width="20" height="20" fill="white" transform="translate(0.5)"/>
</clipPath>
</defs>
</svg>
