<svg width="20" height="20" viewBox="0 0 20 20" fill="none" xmlns="http://www.w3.org/2000/svg">
<path d="M7.08301 5.83333C7.08301 4.45583 8.33301 2.5 9.99967 2.5C11.6663 2.5 12.9163 4.45583 12.9163 5.83333M7.91634 14.1667C8.26051 14.5517 8.74967 15 9.99967 15C11.2497 15 12.083 14.2525 12.083 13.3333C12.083 12.4142 11.2497 12.0833 9.99967 11.6667C8.74967 11.25 8.33301 10.4417 8.33301 10C8.33301 9.08 9.16634 8.33333 9.99967 8.33333C10.833 8.33333 11.2497 8.33333 12.083 9.16667M3.33301 5.83333L4.05551 15.9525C4.08569 16.3736 4.27452 16.7675 4.58387 17.0547C4.89322 17.3419 5.30004 17.5011 5.72217 17.5H14.2855C14.7076 17.5011 15.1145 17.3419 15.4238 17.0547C15.7332 16.7675 15.922 16.3736 15.9522 15.9525L16.6747 5.83333H3.33301Z" stroke="#6962FB" stroke-width="1.66667" stroke-linecap="round" stroke-linejoin="round"/>
</svg>
