<svg width="21" height="20" viewBox="0 0 21 20" fill="none" xmlns="http://www.w3.org/2000/svg">
<path d="M5.91667 6.25C5.91667 6.47101 6.00446 6.68298 6.16074 6.83926C6.31702 6.99554 6.52899 7.08333 6.75 7.08333C6.97101 7.08333 7.18298 6.99554 7.33926 6.83926C7.49554 6.68298 7.58333 6.47101 7.58333 6.25C7.58333 6.02899 7.49554 5.81702 7.33926 5.66074C7.18298 5.50446 6.97101 5.41667 6.75 5.41667C6.52899 5.41667 6.31702 5.50446 6.16074 5.66074C6.00446 5.81702 5.91667 6.02899 5.91667 6.25Z" stroke="#6962FB" stroke-width="1.66667" stroke-linecap="round" stroke-linejoin="round"/>
<path d="M3 5V9.31C3.00009 9.75199 3.17575 10.1758 3.48833 10.4883L9.91333 16.9133C10.29 17.2899 10.8007 17.5015 11.3333 17.5015C11.8659 17.5015 12.3767 17.2899 12.7533 16.9133L17.4133 12.2533C17.7899 11.8767 18.0015 11.3659 18.0015 10.8333C18.0015 10.3007 17.7899 9.78996 17.4133 9.41333L10.9883 2.98833C10.6758 2.67575 10.252 2.50009 9.81 2.5H5.5C4.83696 2.5 4.20107 2.76339 3.73223 3.23223C3.26339 3.70107 3 4.33696 3 5Z" stroke="#6962FB" stroke-width="1.66667" stroke-linecap="round" stroke-linejoin="round"/>
</svg>
