<svg width="18" height="18" viewBox="0 0 18 18" fill="none" xmlns="http://www.w3.org/2000/svg">
<path d="M6.5 10.6667C6.5 12.0475 8.73833 13.1667 11.5 13.1667C14.2617 13.1667 16.5 12.0475 16.5 10.6667M6.5 10.6667C6.5 9.28583 8.73833 8.16667 11.5 8.16667C14.2617 8.16667 16.5 9.28583 16.5 10.6667M6.5 10.6667V14C6.5 15.38 8.73833 16.5 11.5 16.5C14.2617 16.5 16.5 15.38 16.5 14V10.6667M1.5 4C1.5 4.89333 2.45333 5.71833 4 6.165C5.54667 6.61167 7.45333 6.61167 9 6.165C10.5467 5.71833 11.5 4.89333 11.5 4C11.5 3.10667 10.5467 2.28167 9 1.835C7.45333 1.38833 5.54667 1.38833 4 1.835C2.45333 2.28167 1.5 3.10667 1.5 4ZM1.5 4V12.3333C1.5 13.0733 2.14333 13.5417 3.16667 14M1.5 8.16667C1.5 8.90667 2.14333 9.375 3.16667 9.83333" stroke="#475467" stroke-width="1.66667" stroke-linecap="round" stroke-linejoin="round"/>
</svg>
