<svg width="20" height="20" viewBox="0 0 20 20" fill="none" xmlns="http://www.w3.org/2000/svg">
<path d="M12.3502 3.5498C12.1847 3.84621 12.0372 4.15232 11.9085 4.46647C10.6441 4.26651 9.35621 4.26651 8.09184 4.46647C7.96317 4.15232 7.81568 3.84621 7.65018 3.5498C6.45917 3.75331 5.30135 4.11775 4.20851 4.63314C2.25429 7.45338 1.36804 10.8773 1.70851 14.2915C2.98204 15.2489 4.41139 15.979 5.93351 16.4498C6.2801 15.992 6.58943 15.5071 6.85851 14.9998C6.3619 14.8167 5.88459 14.585 5.43351 14.3081C5.55723 14.2258 5.67426 14.1339 5.78351 14.0331C7.09889 14.6667 8.54015 14.9958 10.0002 14.9958C11.4602 14.9958 12.9015 14.6667 14.2168 14.0331C14.3335 14.1331 14.4502 14.2248 14.5668 14.3081C14.1133 14.5828 13.6365 14.8171 13.1418 15.0081C13.3998 15.5269 13.7008 16.0231 14.0418 16.4915C15.5621 16.0223 16.9889 15.292 18.2585 14.3331C18.6072 10.9183 17.7202 7.49162 15.7585 4.6748C14.6779 4.14875 13.5316 3.77036 12.3502 3.5498ZM7.23351 12.3415C6.8165 12.3115 6.42729 12.1212 6.14761 11.8104C5.86792 11.4997 5.7195 11.0927 5.73351 10.6748C5.71739 10.2564 5.86508 9.84821 6.14518 9.53698C6.42529 9.22575 6.81573 9.03603 7.23351 9.00814C7.65129 9.03603 8.04173 9.22575 8.32183 9.53698C8.60194 9.84821 8.74962 10.2564 8.73351 10.6748C8.74962 11.0932 8.60194 11.5014 8.32183 11.8126C8.04173 12.1239 7.65129 12.3136 7.23351 12.3415ZM12.7668 12.3415C12.3498 12.3115 11.9606 12.1212 11.6809 11.8104C11.4013 11.4997 11.2528 11.0927 11.2668 10.6748C11.2507 10.2564 11.3984 9.84821 11.6785 9.53698C11.9586 9.22575 12.3491 9.03603 12.7668 9.00814C13.1854 9.03395 13.5771 9.22306 13.8576 9.53476C14.1382 9.84646 14.2851 10.2558 14.2668 10.6748C14.2851 11.0938 14.1382 11.5031 13.8576 11.8148C13.5771 12.1266 13.1854 12.3157 12.7668 12.3415Z" fill="#475467"/>
</svg>
