<svg width="130" height="32" viewBox="0 0 130 32" fill="none" xmlns="http://www.w3.org/2000/svg">
<path fill-rule="evenodd" clip-rule="evenodd" d="M5.33333 4C2.38781 4 0 6.38781 0 9.33333V22.6667C0 25.6122 2.38781 28 5.33333 28H18.6667C21.6122 28 24 25.6122 24 22.6667V9.33333C24 6.38781 21.6122 4 18.6667 4H5.33333ZM5.33333 7.33333C4.22876 7.33333 3.33333 8.22876 3.33333 9.33333V22.6667C3.33333 23.7712 4.22876 24.6667 5.33333 24.6667H10C11.1046 24.6667 12 23.7712 12 22.6667V9.33333C12 8.22876 11.1046 7.33333 10 7.33333H5.33333Z" fill="#5925DC"/>
<path d="M30.6665 22V8H35.8465C36.9665 8 37.8932 8.18667 38.6265 8.56C39.3598 8.93333 39.9065 9.44667 40.2665 10.1C40.6265 10.7533 40.8065 11.4867 40.8065 12.3C40.8065 13.0733 40.6332 13.7867 40.2865 14.44C39.9398 15.08 39.3998 15.6 38.6665 16C37.9332 16.3867 36.9932 16.58 35.8465 16.58H33.2265V22H30.6665ZM33.2265 14.5H35.6865C36.5798 14.5 37.2198 14.3067 37.6065 13.92C38.0065 13.52 38.2065 12.98 38.2065 12.3C38.2065 11.6067 38.0065 11.0667 37.6065 10.68C37.2198 10.28 36.5798 10.08 35.6865 10.08H33.2265V14.5Z" fill="#0A0D12"/>
<path d="M45.8071 22.24C44.8471 22.24 43.9805 22.02 43.2071 21.58C42.4471 21.14 41.8405 20.5333 41.3871 19.76C40.9471 18.9733 40.7271 18.0667 40.7271 17.04C40.7271 16.0133 40.9538 15.1133 41.4071 14.34C41.8605 13.5533 42.4671 12.94 43.2271 12.5C44.0005 12.06 44.8671 11.84 45.8271 11.84C46.7738 11.84 47.6271 12.06 48.3871 12.5C49.1605 12.94 49.7671 13.5533 50.2071 14.34C50.6605 15.1133 50.8871 16.0133 50.8871 17.04C50.8871 18.0667 50.6605 18.9733 50.2071 19.76C49.7671 20.5333 49.1605 21.14 48.3871 21.58C47.6138 22.02 46.7538 22.24 45.8071 22.24ZM45.8071 20.02C46.4738 20.02 47.0538 19.7733 47.5471 19.28C48.0405 18.7733 48.2871 18.0267 48.2871 17.04C48.2871 16.0533 48.0405 15.3133 47.5471 14.82C47.0538 14.3133 46.4805 14.06 45.8271 14.06C45.1471 14.06 44.5605 14.3133 44.0671 14.82C43.5871 15.3133 43.3471 16.0533 43.3471 17.04C43.3471 18.0267 43.5871 18.7733 44.0671 19.28C44.5605 19.7733 45.1405 20.02 45.8071 20.02Z" fill="#0A0D12"/>
<path d="M53.5645 22L50.6645 12.08H53.2045L54.9245 19.22L56.9245 12.08H59.7645L61.7645 19.22L63.5045 12.08H66.0445L63.1245 22H60.4645L58.3445 14.58L56.2245 22H53.5645Z" fill="#0A0D12"/>
<path d="M70.9281 22.24C69.9281 22.24 69.0414 22.0267 68.2681 21.6C67.4947 21.1733 66.8881 20.5733 66.4481 19.8C66.0081 19.0267 65.7881 18.1333 65.7881 17.12C65.7881 16.0933 66.0014 15.18 66.4281 14.38C66.8681 13.58 67.4681 12.96 68.2281 12.52C69.0014 12.0667 69.9081 11.84 70.9481 11.84C71.9214 11.84 72.7814 12.0533 73.5281 12.48C74.2747 12.9067 74.8547 13.4933 75.2681 14.24C75.6947 14.9733 75.9081 15.7933 75.9081 16.7C75.9081 16.8467 75.9014 17 75.8881 17.16C75.8881 17.32 75.8814 17.4867 75.8681 17.66H68.3281C68.3814 18.4333 68.6481 19.04 69.1281 19.48C69.6214 19.92 70.2147 20.14 70.9081 20.14C71.4281 20.14 71.8614 20.0267 72.2081 19.8C72.5681 19.56 72.8347 19.2533 73.0081 18.88H75.6081C75.4214 19.5067 75.1081 20.08 74.6681 20.6C74.2414 21.1067 73.7081 21.5067 73.0681 21.8C72.4414 22.0933 71.7281 22.24 70.9281 22.24ZM70.9481 13.92C70.3214 13.92 69.7681 14.1 69.2881 14.46C68.8081 14.8067 68.5014 15.34 68.3681 16.06H73.3081C73.2681 15.4067 73.0281 14.8867 72.5881 14.5C72.1481 14.1133 71.6014 13.92 70.9481 13.92Z" fill="#0A0D12"/>
<path d="M76.8612 22V12.08H79.1412L79.3812 13.94C79.7412 13.3 80.2279 12.7933 80.8412 12.42C81.4679 12.0333 82.2012 11.84 83.0412 11.84V14.54H82.3212C81.7612 14.54 81.2612 14.6267 80.8212 14.8C80.3812 14.9733 80.0345 15.2733 79.7812 15.7C79.5412 16.1267 79.4212 16.72 79.4212 17.48V22H76.8612Z" fill="#0A0D12"/>
<path d="M87.6909 22.24C86.8109 22.24 86.0375 22.1 85.3709 21.82C84.7042 21.5267 84.1709 21.1267 83.7709 20.62C83.3709 20.1133 83.1309 19.5267 83.0509 18.86H85.6309C85.7109 19.2467 85.9242 19.58 86.2709 19.86C86.6309 20.1267 87.0909 20.26 87.6509 20.26C88.2109 20.26 88.6175 20.1467 88.8709 19.92C89.1375 19.6933 89.2709 19.4333 89.2709 19.14C89.2709 18.7133 89.0842 18.4267 88.7109 18.28C88.3376 18.12 87.8175 17.9667 87.1509 17.82C86.7242 17.7267 86.2909 17.6133 85.8509 17.48C85.4109 17.3467 85.0042 17.18 84.6309 16.98C84.2709 16.7667 83.9775 16.5 83.7509 16.18C83.5242 15.8467 83.4109 15.44 83.4109 14.96C83.4109 14.08 83.7575 13.34 84.4509 12.74C85.1575 12.14 86.1442 11.84 87.4109 11.84C88.5842 11.84 89.5176 12.1133 90.2109 12.66C90.9175 13.2067 91.3376 13.96 91.4709 14.92H89.0509C88.9042 14.1867 88.3509 13.82 87.3909 13.82C86.9109 13.82 86.5375 13.9133 86.2709 14.1C86.0175 14.2867 85.8909 14.52 85.8909 14.8C85.8909 15.0933 86.0842 15.3267 86.4709 15.5C86.8575 15.6733 87.3709 15.8333 88.0109 15.98C88.7042 16.14 89.3375 16.32 89.9109 16.52C90.4975 16.7067 90.9642 16.9933 91.3109 17.38C91.6575 17.7533 91.8309 18.2933 91.8309 19C91.8442 19.6133 91.6842 20.1667 91.3509 20.66C91.0176 21.1533 90.5375 21.54 89.9109 21.82C89.2842 22.1 88.5442 22.24 87.6909 22.24Z" fill="#0A0D12"/>
<path d="M96.6187 22.24C95.3787 22.24 94.4187 21.8533 93.7387 21.08C93.072 20.3067 92.7387 19.1733 92.7387 17.68V12.08H95.2787V17.44C95.2787 18.2933 95.452 18.9467 95.7987 19.4C96.1454 19.8533 96.692 20.08 97.4387 20.08C98.1454 20.08 98.7254 19.8267 99.1787 19.32C99.6454 18.8133 99.8787 18.1067 99.8787 17.2V12.08H102.439V22H100.179L99.9787 20.32C99.672 20.9067 99.2254 21.3733 98.6387 21.72C98.0654 22.0667 97.392 22.24 96.6187 22.24Z" fill="#0A0D12"/>
<path d="M103.867 22V12.08H106.147L106.387 13.94C106.747 13.3 107.233 12.7933 107.847 12.42C108.473 12.0333 109.207 11.84 110.047 11.84V14.54H109.327C108.767 14.54 108.267 14.6267 107.827 14.8C107.387 14.9733 107.04 15.2733 106.787 15.7C106.547 16.1267 106.427 16.72 106.427 17.48V22H103.867Z" fill="#0A0D12"/>
<path d="M114.562 19.04C114.082 19.04 113.635 18.9867 113.222 18.88L112.482 19.62C112.709 19.74 113.015 19.84 113.402 19.92C113.789 20 114.415 20.08 115.282 20.16C116.602 20.28 117.562 20.5933 118.162 21.1C118.762 21.6067 119.062 22.3067 119.062 23.2C119.062 23.7867 118.902 24.34 118.582 24.86C118.262 25.3933 117.769 25.82 117.102 26.14C116.435 26.4733 115.582 26.64 114.542 26.64C113.129 26.64 111.989 26.3733 111.122 25.84C110.255 25.32 109.822 24.5333 109.822 23.48C109.822 22.5867 110.255 21.8133 111.122 21.16C110.855 21.04 110.622 20.9133 110.422 20.78C110.235 20.6467 110.069 20.5067 109.922 20.36V19.9L111.662 18.06C110.889 17.38 110.502 16.5067 110.502 15.44C110.502 14.7733 110.662 14.1667 110.982 13.62C111.315 13.0733 111.782 12.64 112.382 12.32C112.982 12 113.709 11.84 114.562 11.84C115.122 11.84 115.642 11.92 116.122 12.08H119.882V13.64L118.182 13.76C118.449 14.2667 118.582 14.8267 118.582 15.44C118.582 16.1067 118.422 16.7133 118.102 17.26C117.782 17.8067 117.315 18.24 116.702 18.56C116.102 18.88 115.389 19.04 114.562 19.04ZM114.562 17.08C115.082 17.08 115.509 16.94 115.842 16.66C116.189 16.38 116.362 15.98 116.362 15.46C116.362 14.94 116.189 14.54 115.842 14.26C115.509 13.98 115.082 13.84 114.562 13.84C114.015 13.84 113.575 13.98 113.242 14.26C112.909 14.54 112.742 14.94 112.742 15.46C112.742 15.98 112.909 16.38 113.242 16.66C113.575 16.94 114.015 17.08 114.562 17.08ZM112.162 23.22C112.162 23.7133 112.389 24.08 112.842 24.32C113.309 24.5733 113.875 24.7 114.542 24.7C115.182 24.7 115.702 24.5667 116.102 24.3C116.502 24.0467 116.702 23.7 116.702 23.26C116.702 22.9 116.569 22.6 116.302 22.36C116.049 22.12 115.535 21.9733 114.762 21.92C114.215 21.88 113.709 21.82 113.242 21.74C112.855 21.9533 112.575 22.1867 112.402 22.44C112.242 22.6933 112.162 22.9533 112.162 23.22Z" fill="#0A0D12"/>
<path d="M124.978 22.24C123.978 22.24 123.091 22.0267 122.318 21.6C121.545 21.1733 120.938 20.5733 120.498 19.8C120.058 19.0267 119.838 18.1333 119.838 17.12C119.838 16.0933 120.051 15.18 120.478 14.38C120.918 13.58 121.518 12.96 122.278 12.52C123.051 12.0667 123.958 11.84 124.998 11.84C125.971 11.84 126.831 12.0533 127.578 12.48C128.325 12.9067 128.905 13.4933 129.318 14.24C129.745 14.9733 129.958 15.7933 129.958 16.7C129.958 16.8467 129.951 17 129.938 17.16C129.938 17.32 129.931 17.4867 129.918 17.66H122.378C122.431 18.4333 122.698 19.04 123.178 19.48C123.671 19.92 124.265 20.14 124.958 20.14C125.478 20.14 125.911 20.0267 126.258 19.8C126.618 19.56 126.885 19.2533 127.058 18.88H129.658C129.471 19.5067 129.158 20.08 128.718 20.6C128.291 21.1067 127.758 21.5067 127.118 21.8C126.491 22.0933 125.778 22.24 124.978 22.24ZM124.998 13.92C124.371 13.92 123.818 14.1 123.338 14.46C122.858 14.8067 122.551 15.34 122.418 16.06H127.358C127.318 15.4067 127.078 14.8867 126.638 14.5C126.198 14.1133 125.651 13.92 124.998 13.92Z" fill="#0A0D12"/>
</svg>
