<svg width="20" height="20" viewBox="0 0 20 20" fill="none" xmlns="http://www.w3.org/2000/svg">
<path d="M17.0409 16.3719L12.2752 8.8875L16.9409 3.75547C17.1046 3.57093 17.189 3.32929 17.1757 3.08296C17.1624 2.83662 17.0526 2.60543 16.8701 2.43952C16.6875 2.27361 16.4469 2.18634 16.2004 2.19664C15.9539 2.20693 15.7215 2.31397 15.5534 2.49453L11.2354 7.24766L8.29086 2.62188C8.20624 2.48883 8.08943 2.37927 7.95123 2.30334C7.81303 2.22742 7.65792 2.18757 7.50024 2.1875H3.75024C3.5823 2.18758 3.41746 2.23276 3.27296 2.31834C3.12846 2.40391 3.0096 2.52673 2.9288 2.67395C2.848 2.82118 2.80824 2.9874 2.81366 3.15525C2.81908 3.32311 2.86948 3.48642 2.95961 3.62812L7.72523 11.1125L3.05649 16.2445C2.97195 16.3353 2.90629 16.442 2.86329 16.5584C2.82029 16.6748 2.80081 16.7985 2.80599 16.9225C2.81117 17.0464 2.8409 17.1681 2.89346 17.2805C2.94601 17.3929 3.02035 17.4937 3.11216 17.5771C3.20397 17.6606 3.31143 17.7249 3.42831 17.7665C3.54519 17.8081 3.66916 17.8261 3.79304 17.8195C3.91692 17.8128 4.03825 17.7816 4.14999 17.7277C4.26173 17.6738 4.36166 17.5983 4.44399 17.5055L8.76508 12.7523L11.7096 17.3781C11.7942 17.5112 11.911 17.6207 12.0492 17.6967C12.1874 17.7726 12.3426 17.8124 12.5002 17.8125H16.2502C16.4182 17.8124 16.583 17.7672 16.7275 17.6817C16.872 17.5961 16.9909 17.4733 17.0717 17.326C17.1525 17.1788 17.1922 17.0126 17.1868 16.8447C17.1814 16.6769 17.131 16.5136 17.0409 16.3719ZM13.0151 15.9375L5.45805 4.0625H6.98539L14.5424 15.9375H13.0151Z" fill="#475467"/>
</svg>
